# xmcd
#
# Track frame offsets:
#	150
#	12265
#	26052
#	40522
#	54312
#	74555
#	87572
#	100860
#	112737
#	125587
#	139455
#	150227
#	168212
#	184870
#
# Disc length: 2681 seconds
#
# Revision: 1
# Processed by: cddbd v1.4PL0 Copyright (c) Steve Scherf et al.
# Submitted via: audiograbber 1.81.01
#
DISCID=b20a770e
DTITLE=Tom Astor - Lucille
DYEAR=1900
DGENRE=
TTITLE0=Tom Astor - Radwechsel
TTITLE1=Tom Astor - Six Days On The Road
TTITLE2=Tom Astor - Ich Bin Ein Gefangener Der Autobahn
TTITLE3=Tom Astor - Gebet Eines Truckers
TTITLE4=Tom Astor - Meine Antwort Ist Die Große Autobahn
TTITLE5=Tom Astor - Buchstabiere LKW
TTITLE6=Tom Astor - Mann Oh Mann
TTITLE7=Tom Astor - 14 Tage Auf Dem Brenner
TTITLE8=Tom Astor - Er Ist Ein Gottesmann Für Trucker
TTITLE9=Tom Astor - Die Frau Mit Dem Gurt
TTITLE10=Tom Astor - Louise Aus Louisiana
TTITLE11=Tom Astor - Lucille
TTITLE12=Tom Astor - Ich Möcht So Gern Dave Dudley Hör`n
TTITLE13=Tom Astor - Angie
EXTD=
EXTT0=
EXTT1=
EXTT2=
EXTT3=
EXTT4=
EXTT5=
EXTT6=
EXTT7=
EXTT8=
EXTT9=
EXTT10=
EXTT11=
EXTT12=
EXTT13=
PLAYORDER=
